<?xml version="1.0" encoding="UTF-8"?>
<svg id="Glyph" xmlns="http://www.w3.org/2000/svg" viewBox="0 0 64 64">
    <path
        d="M7.12,43.5c.39,.39,1.02,.39,1.41,0l4.24-4.24c.39-.39,.39-1.02,0-1.41L30.71,19.91l.21,.21c.36,.36,.94,.39,1.34,.07l.11-.09c3.32,3.37,6.19,6.43,7.61,10.75,.55,1.67,2.05,2.86,3.81,2.99-1.32-10.07-4-13.75-7.3-17.12l.43-.35c.46-.37,.49-1.06,.07-1.48l-4.09-4.09c-.42-.42-1.11-.38-1.48,.07l-.35,.43c-3.37-3.29-7.05-5.98-17.12-7.3,.14,1.76,1.32,3.26,2.99,3.81,4.33,1.42,7.38,4.3,10.75,7.61l-.09,.11c-.33,.4-.3,.98,.07,1.34l.21,.21L9.95,35.01h0c-.39-.39-1.02-.39-1.41,0l-4.24,4.24c-.39,.39-.39,1.02,0,1.41l2.83,2.83Z" />
    <path
        d="M51,30l-4,10.61-1.51,4.01c-.15,.4-.53,.65-.94,.65-.11,0-.23-.03-.35-.07-.51-.19-.78-.77-.58-1.29l1.06-2.82-6.51,1.34-3.56,6.74-2.04,3.86c-.18,.34-.52,.53-.88,.53-.16,0-.32-.03-.47-.11-.49-.26-.67-.86-.42-1.35l1.26-2.39-5.56,1.18-3.51,7.11H5c-.55,0-1,.45-1,1s.45,1,1,1H60v-26.66l-9-3.34Z" />
    <path
        d="M47.63,26.93c.12,.05,.25,.07,.37,.07,.4,0,.77-.24,.93-.63l2-5c.21-.51-.04-1.09-.56-1.3-.51-.2-1.09,.04-1.3,.56l-2,5c-.21,.51,.04,1.09,.56,1.3Z" />
    <path
        d="M36,35c.42,0,.81-.27,.95-.68,.17-.52-.11-1.09-.63-1.27l-6-2c-.53-.18-1.09,.11-1.26,.63-.17,.52,.11,1.09,.63,1.27l6,2c.11,.04,.21,.05,.32,.05Z" />
    <path
        d="M33.78,38.02l-9,2c-.54,.12-.88,.65-.76,1.19,.1,.47,.52,.78,.98,.78,.07,0,.14,0,.22-.02l9-2c.54-.12,.88-.65,.76-1.19-.12-.54-.66-.88-1.19-.76Z" />
</svg>